<svg xmlns="http://www.w3.org/2000/svg" xmlns:xlink="http://www.w3.org/1999/xlink" viewBox="0,0,256,256" width="50px" height="50px" fill-rule="nonzero"><g fill="#ffd110" fill-rule="nonzero" stroke="none" stroke-width="1" stroke-linecap="butt" stroke-linejoin="miter" stroke-miterlimit="10" stroke-dasharray="" stroke-dashoffset="0" font-family="none" font-weight="none" font-size="none" text-anchor="none" style="mix-blend-mode: normal"><g transform="scale(5.12,5.12)"><path d="M23.5,0c-12.407,0 -22.5,10.093 -22.5,22.5c0,12.407 10.093,22.5 22.5,22.5c2.595,0 4.43559,-0.29564 6.05859,-0.55664c1.418,-0.228 2.75641,-0.44336 4.44141,-0.44336c8.165,0 13.19905,5.60316 13.24805,5.66016c0.196,0.222 0.47295,0.33789 0.75195,0.33789c0.186,0 0.37406,-0.0502 0.53906,-0.1582c0.416,-0.267 0.57405,-0.79705 0.37305,-1.24805c-0.11,-0.248 -2.82675,-6.10791 -13.71875,-8.62891l-0.29687,-0.08203c-2.692,-0.666 -4.86598,-1.75061 -6.45898,-3.22461c-2.058,-1.902 -2.45113,-3.82198 -2.45312,-3.83398c-0.092,-0.509 -0.56822,-0.86136 -1.07422,-0.81836c-0.516,0.047 -0.91016,0.47809 -0.91016,0.99609c0,0.102 0.00652,2.09075 0.35352,3.96875c-0.298,0.021 -0.58052,0.03125 -0.85352,0.03125c-7.995,0 -14.5,-6.505 -14.5,-14.5c0,-7.995 6.505,-14.5 14.5,-14.5c7.995,0 14.5,6.505 14.5,14.5c0,0.596 -0.03728,1.19883 -0.11328,1.79883c-1.886,-0.298 -3.76172,-0.29883 -3.88672,-0.29883c-0.582,0 -1,0.49953 -1,1.01953c0.012,0.543 0.45505,0.97947 0.99805,0.98047c0.02,0 2.10089,0.0198 3.96289,1.2168c3.087,1.984 3.82603,4.97986 3.83203,5.00586c0.093,0.412 0.43547,0.71953 0.85547,0.76953c0.417,0.043 0.82567,-0.16983 1.01367,-0.54883c1.551,-3.135 2.33789,-6.48136 2.33789,-9.94336c0,-12.407 -10.093,-22.5 -22.5,-22.5zM38.63477,32.00195c-0.24506,-0.01495 -0.43602,0.09164 -0.54102,0.27539c-0.212,0.371 -0.05395,1.10609 0.37305,1.74609c0.433,0.648 0.7998,0.97656 1.0918,0.97656c0.268,0 0.53616,-0.33548 0.41016,-1.14648c-0.075,-0.484 -0.35727,-1.53592 -1.07227,-1.79492c-0.0925,-0.0335 -0.18003,-0.05166 -0.26172,-0.05664zM35.36719,35c-0.449,0 -0.82274,0.1168 -1.05273,0.3418c-0.59,0.578 -0.32487,1.5937 0.57813,2.2207c0.395,0.273 0.96253,0.4375 1.51953,0.4375c0.567,0 1.04098,-0.16956 1.33398,-0.47656c0.525,-0.56 0.22347,-1.35253 -0.76953,-2.01953c-0.492,-0.33 -1.06437,-0.50391 -1.60937,-0.50391z"></path></g></g></svg>